<svg xmlns="http://www.w3.org/2000/svg" xmlns:xlink="http://www.w3.org/1999/xlink" width="32" height="32" version="1.1"><rect id="backgroundrect" width="100%" height="100%" x="0" y="0" fill="none" stroke="none"/>

<g class="currentLayer" style=""><title>Layer 1</title><g id="surface1" class="selected" fill="#ffffff" fill-opacity="1">
<path style="stroke: none; fill-rule: nonzero;" d="M 31.3125 15.351562 L 27.582031 15.351562 C 27.25 9.480469 22.519531 4.75 16.648438 4.417969 L 16.648438 0.6875 L 15.34375 0.6875 L 15.34375 4.417969 C 9.480469 4.75 4.75 9.480469 4.417969 15.351562 L 0.6875 15.351562 L 0.6875 16.65625 L 4.417969 16.65625 C 4.75 22.519531 9.480469 27.25 15.351562 27.582031 L 15.351562 31.3125 L 16.65625 31.3125 L 16.65625 27.582031 C 22.523438 27.25 27.257812 22.523438 27.582031 16.65625 L 31.3125 16.65625 Z M 26.273438 15.351562 L 23.269531 15.351562 C 22.960938 11.832031 20.167969 9.042969 16.648438 8.730469 L 16.648438 5.726562 C 21.804688 6.050781 25.949219 10.195312 26.273438 15.351562 Z M 21.957031 16.648438 C 21.648438 19.445312 19.398438 21.648438 16.648438 21.957031 L 16.648438 19.976562 L 15.34375 19.976562 L 15.34375 21.960938 C 12.542969 21.664062 10.335938 19.457031 10.039062 16.65625 L 12.023438 16.65625 L 12.023438 15.351562 L 10.042969 15.351562 C 10.351562 12.554688 12.601562 10.351562 15.351562 10.042969 L 15.351562 12.023438 L 16.65625 12.023438 L 16.65625 10.042969 C 19.40625 10.351562 21.65625 12.554688 21.960938 15.351562 L 19.980469 15.351562 L 19.980469 16.65625 L 21.957031 16.65625 Z M 15.351562 5.71875 L 15.351562 8.726562 C 11.832031 9.03125 9.042969 11.824219 8.730469 15.34375 L 5.726562 15.34375 C 6.050781 10.1875 10.195312 6.042969 15.351562 5.71875 Z M 5.726562 16.644531 L 8.730469 16.644531 C 9.039062 20.164062 11.832031 22.949219 15.351562 23.261719 L 15.351562 26.269531 C 10.195312 25.945312 6.050781 21.800781 5.726562 16.644531 Z M 16.648438 26.269531 L 16.648438 23.261719 C 20.167969 22.957031 22.957031 20.164062 23.269531 16.644531 L 26.273438 16.644531 C 25.949219 21.800781 21.804688 25.945312 16.648438 26.269531 Z M 16.648438 26.269531 " id="svg_1" fill="#ffffff" fill-opacity="1"/>
</g></g></svg>