<svg xmlns="http://www.w3.org/2000/svg" xmlns:xlink="http://www.w3.org/1999/xlink" version="1.1" enable-background="new 0 0 100 100" xml:space="preserve" width="90" height="90"><rect id="backgroundrect" width="100%" height="100%" x="0" y="0" fill="none" stroke="none" class="" style=""/><g class="currentLayer" style=""><title>Layer 1</title><g id="svg_1" class="selected"><path d="M18.5,77.12621443867684 C18.5,77.12621443867684 18.5,77.12621443867684 18.5,77.12621443867684 C18.5,77.12621443867684 18.5,77.22621443867683 18.5,77.12621443867684 L18.5,77.12621443867684 z" id="svg_2"/><path d="M90,40.726214438676834 c0,-5.3 -4.1,-9.5 -9.4,-11.6 c0.1,-0.30000000000000027 0.1,-0.7000000000000005 0.1,-1 c0,-9.3 -8.8,-16.2 -18.9,-16.2 c-1.9,0 -3.7,0.2 -5.4,0.7000000000000005 c-4.5,-2.2 -10.2,-3.5 -16.4,-3.5 h-0.30000000000000027 c-12.2,0 -23.7,5.2 -25.5,13.3 C6.199999999999999,24.326214438676836 5.551115123125783e-17,30.726214438676834 5.551115123125783e-17,38.62621443867683 c0,9.6 8.9,17 19.2,17 c0.4,0 0.8,0 1.2,-0.1 c1.4,2.9 5,4.6 8.6,4.6 c1.9,0 3.6,-0.4 5.1,-1.1 c3.7,2.2 8.2,3.4 13.1,3.4 c8.1,0 15.4,-3.5 19.5,-8.9 c1.6,0.30000000000000027 3.2,0.5 4.9,0.5 C81.1,54.02621443867683 90,48.62621443867683 90,40.726214438676834 L90,40.726214438676834 zM71.7,50.226214438676834 c-2.1,0 -3.9,-0.30000000000000027 -6.5,-0.9 c-4.3,6.4 -10.8,9.4 -17.9,9.4 c-4.7,0 -8.7,-1.2 -13.2,-4.1 c-2,1.4 -3.2,1.8 -5,1.8 c-3,0 -5.1,-1.2 -5.8,-4.9 c-2,0.2 -3,0.4 -4.1,0.4 c-8.8,0 -15.4,-6.2 -15.4,-13.2 c0,-7.2 6.3,-11.8 13.7,-13.1 C18.4,15.426214438676833 33,12.726214438676834 39.8,12.726214438676834 c5.5,0 11,1 16.2,3.8 c2.2,-0.7000000000000005 4,-0.9 5.8,-0.9 c8.7,0 15.2,5.9 15.2,12.4 c0,0.9 -0.2,1.9 -0.6000000000000005,3.6 c5.1,1.6 9.9,4.5 9.9,9.1 S80.4,50.226214438676834 71.7,50.226214438676834 z" id="svg_3"/><path d="M23.3,73.72621443867683 c3.4,0 6.2,-2.8 6.2,-6.3 c0,-3.4 -2.8,-6.2 -6.2,-6.2 c-3.4,0 -6.3,2.8 -6.3,6.2 C17,70.82621443867683 19.9,73.72621443867683 23.3,73.72621443867683 zM23.3,64.92621443867684 c1.3,0 2.5,1.1 2.5,2.5 c0,1.3 -1.1,2.5 -2.5,2.5 c-1.3,0 -2.5,-1.1 -2.5,-2.5 C20.8,66.12621443867684 22,64.92621443867684 23.3,64.92621443867684 z" id="svg_4"/><path d="M18.5,77.12621443867684 c0,-2.2 -1.7000000000000002,-3.9 -3.9,-3.9 c-2.2,0 -4,1.8 -4,4 c0,2.1 1.8,3.9 4,3.9 h0 C16.7,81.12621443867684 18.4,79.32621443867683 18.5,77.12621443867684 zM13.600000000000001,77.12621443867684 c0,-0.5 0.5,-0.9 1,-0.9 c0.5,0 0.9,0.4 0.9,1 c0,0.5 -0.4,0.9 -0.9,0.9 C14.100000000000001,78.02621443867683 13.600000000000001,77.72621443867683 13.600000000000001,77.12621443867684 z" id="svg_5"/></g></g></svg>