<?xml version="1.0" encoding="UTF-8"?>
<svg xmlns="http://www.w3.org/2000/svg" xmlns:xlink="http://www.w3.org/1999/xlink" width="30pt" height="30pt" viewBox="0 0 30 30" version="1.1">
<g id="surface1">
<path style=" stroke:none;fill-rule:nonzero;fill:rgb(0%,0%,0%);fill-opacity:1;" d="M 16.613281 1.597656 C 16.433594 1.691406 16.339844 1.792969 16.203125 2.050781 C 15.84375 2.722656 15.46875 3.09375 14.777344 3.476562 C 14.574219 3.585938 14.425781 3.761719 14.367188 3.957031 C 14.3125 4.152344 14.3125 4.261719 14.371094 4.460938 C 14.433594 4.6875 14.574219 4.828125 14.921875 5.03125 C 15.503906 5.367188 15.835938 5.703125 16.164062 6.296875 C 16.359375 6.65625 16.5 6.800781 16.71875 6.863281 C 16.914062 6.925781 16.996094 6.925781 17.183594 6.867188 C 17.40625 6.800781 17.558594 6.648438 17.75 6.296875 C 18.078125 5.703125 18.398438 5.371094 18.992188 5.027344 C 19.433594 4.773438 19.585938 4.5625 19.585938 4.207031 C 19.585938 3.871094 19.417969 3.617188 19.070312 3.4375 C 18.488281 3.136719 18.097656 2.742188 17.734375 2.078125 C 17.574219 1.789062 17.488281 1.691406 17.300781 1.601562 C 17.097656 1.503906 16.785156 1.5 16.613281 1.597656 Z M 17.011719 2.5 C 17.085938 2.667969 17.429688 3.171875 17.609375 3.367188 C 17.824219 3.605469 18.132812 3.855469 18.476562 4.0625 L 18.722656 4.210938 L 18.476562 4.355469 C 17.9375 4.664062 17.433594 5.175781 17.113281 5.742188 C 17.035156 5.882812 16.964844 5.996094 16.957031 5.996094 C 16.945312 5.996094 16.902344 5.914062 16.851562 5.816406 C 16.75 5.617188 16.492188 5.257812 16.285156 5.027344 C 16.113281 4.828125 15.742188 4.539062 15.425781 4.347656 L 15.1875 4.210938 L 15.386719 4.09375 C 16.015625 3.71875 16.449219 3.28125 16.792969 2.675781 C 16.875 2.53125 16.949219 2.417969 16.957031 2.417969 C 16.96875 2.417969 16.992188 2.453125 17.011719 2.5 Z M 17.011719 2.5 "/>
<path style=" stroke:none;fill-rule:nonzero;fill:rgb(0%,0%,0%);fill-opacity:1;" d="M 26.660156 2.199219 C 26.613281 2.210938 26.523438 2.25 26.464844 2.277344 C 26.410156 2.304688 25.085938 3.628906 23.53125 5.222656 L 20.703125 8.113281 L 20.078125 8.109375 C 18.460938 8.097656 16.742188 8.3125 15.3125 8.703125 C 14.722656 8.863281 14.796875 8.859375 14.351562 8.734375 C 12.929688 8.34375 11.605469 8.15625 9.988281 8.113281 C 8.789062 8.085938 7.570312 8.171875 6.445312 8.367188 C 5.222656 8.574219 4.921875 8.691406 4.53125 9.097656 C 4.152344 9.484375 3.976562 9.933594 3.976562 10.488281 L 3.976562 10.734375 L 3.21875 10.734375 C 2.542969 10.734375 2.4375 10.742188 2.269531 10.796875 C 1.921875 10.90625 1.625 11.214844 1.511719 11.566406 C 1.46875 11.71875 1.464844 12.285156 1.472656 18.902344 L 1.480469 26.074219 L 1.566406 26.257812 C 1.679688 26.496094 1.90625 26.726562 2.136719 26.84375 L 2.316406 26.933594 L 14.714844 26.941406 C 26.34375 26.949219 27.117188 26.945312 27.273438 26.894531 C 27.597656 26.792969 27.929688 26.441406 28.054688 26.0625 C 28.105469 25.914062 28.128906 12.078125 28.082031 11.777344 C 28.011719 11.363281 27.765625 11.027344 27.402344 10.847656 L 27.199219 10.75 L 25.574219 10.734375 L 25.5625 10.390625 C 25.542969 9.886719 25.402344 9.523438 25.074219 9.15625 L 24.941406 9.003906 L 26.917969 6.984375 C 28.023438 5.859375 28.925781 4.910156 28.972656 4.832031 C 29.074219 4.65625 29.085938 4.335938 28.992188 4.144531 C 28.960938 4.074219 28.59375 3.671875 28.109375 3.175781 C 27.246094 2.28125 27.175781 2.226562 26.882812 2.191406 C 26.808594 2.183594 26.710938 2.1875 26.660156 2.199219 Z M 27.878906 4.808594 L 27.558594 5.136719 L 26.863281 4.429688 L 26.167969 3.714844 L 26.484375 3.390625 L 26.808594 3.058594 L 28.199219 4.480469 Z M 22.839844 7.945312 L 19.691406 11.164062 L 19.492188 10.960938 L 19.289062 10.75 L 22.433594 7.535156 L 25.582031 4.3125 L 25.988281 4.726562 Z M 23.828125 8.953125 L 20.679688 12.171875 L 20.476562 11.96875 L 20.273438 11.761719 L 23.421875 8.542969 L 26.570312 5.320312 L 26.769531 5.527344 L 26.972656 5.734375 Z M 10.859375 8.996094 C 11.882812 9.070312 12.816406 9.21875 13.824219 9.472656 L 14.382812 9.613281 L 14.382812 16.671875 C 14.382812 20.558594 14.378906 23.734375 14.367188 23.734375 C 14.359375 23.734375 14.226562 23.703125 14.074219 23.664062 C 13.207031 23.425781 12.03125 23.238281 10.898438 23.152344 C 10.285156 23.101562 8.792969 23.105469 8.195312 23.152344 C 7.613281 23.199219 6.890625 23.285156 6.316406 23.382812 C 5.964844 23.4375 5.84375 23.449219 5.703125 23.425781 C 5.347656 23.367188 5.058594 23.140625 4.890625 22.789062 L 4.800781 22.589844 L 4.789062 16.515625 C 4.785156 12.066406 4.789062 10.398438 4.816406 10.261719 C 4.882812 9.902344 5.101562 9.613281 5.421875 9.464844 C 5.761719 9.3125 7.332031 9.054688 8.386719 8.984375 C 8.769531 8.957031 10.453125 8.964844 10.859375 8.996094 Z M 19.0625 9.792969 C 18.21875 10.664062 18.0625 10.863281 17.867188 11.300781 C 17.8125 11.425781 17.621094 11.976562 17.449219 12.523438 C 17.117188 13.578125 17.085938 13.730469 17.179688 13.957031 C 17.328125 14.328125 17.675781 14.472656 18.097656 14.347656 C 18.714844 14.160156 20.066406 13.6875 20.226562 13.605469 C 20.621094 13.402344 20.785156 13.253906 22.554688 11.445312 C 23.808594 10.164062 24.351562 9.632812 24.382812 9.644531 C 24.46875 9.679688 24.640625 9.953125 24.699219 10.15625 C 24.761719 10.351562 24.761719 10.414062 24.753906 16.472656 L 24.746094 22.589844 L 24.660156 22.78125 C 24.546875 23.027344 24.292969 23.277344 24.050781 23.367188 C 23.832031 23.453125 23.601562 23.453125 23.132812 23.371094 C 20.699219 22.945312 17.746094 23.054688 15.46875 23.65625 L 15.191406 23.730469 L 15.191406 16.671875 C 15.191406 9.972656 15.195312 9.609375 15.246094 9.59375 C 15.9375 9.371094 17.199219 9.136719 18.167969 9.039062 C 18.792969 8.976562 18.863281 8.972656 19.40625 8.96875 L 19.867188 8.960938 Z M 19.40625 12.066406 C 19.929688 12.597656 20.042969 12.730469 20.007812 12.757812 C 19.859375 12.859375 19.636719 12.949219 18.871094 13.203125 C 18.402344 13.359375 18.015625 13.484375 18.015625 13.480469 C 18.011719 13.476562 18.132812 13.085938 18.285156 12.609375 C 18.535156 11.835938 18.699219 11.410156 18.746094 11.410156 C 18.757812 11.410156 19.054688 11.707031 19.40625 12.066406 Z M 3.976562 17.078125 C 3.976562 22.46875 3.976562 22.601562 4.035156 22.832031 C 4.210938 23.523438 4.726562 24.046875 5.402344 24.226562 C 5.707031 24.304688 5.96875 24.300781 6.507812 24.210938 C 7.632812 24.011719 8.71875 23.933594 9.941406 23.960938 C 11.675781 24 12.945312 24.199219 14.628906 24.691406 C 14.757812 24.734375 14.828125 24.71875 15.414062 24.550781 C 16.242188 24.3125 17.234375 24.128906 18.300781 24.019531 C 18.960938 23.953125 20.816406 23.945312 21.472656 24.003906 C 22.003906 24.054688 22.695312 24.144531 23.128906 24.226562 C 23.699219 24.332031 24.09375 24.292969 24.5 24.089844 C 24.992188 23.847656 25.386719 23.351562 25.523438 22.804688 C 25.5625 22.644531 25.566406 21.941406 25.566406 17.09375 L 25.566406 11.5625 L 26.246094 11.5625 C 26.859375 11.5625 26.9375 11.566406 27.046875 11.625 C 27.113281 11.65625 27.191406 11.722656 27.222656 11.773438 C 27.269531 11.855469 27.273438 12.285156 27.273438 18.839844 C 27.273438 25.789062 27.273438 25.824219 27.214844 25.921875 C 27.179688 25.976562 27.105469 26.046875 27.050781 26.074219 C 26.957031 26.117188 25.894531 26.121094 14.765625 26.121094 C 3.230469 26.121094 2.582031 26.117188 2.480469 26.066406 C 2.421875 26.035156 2.355469 25.96875 2.328125 25.90625 C 2.277344 25.804688 2.273438 25.40625 2.273438 18.847656 C 2.273438 11.34375 2.265625 11.757812 2.429688 11.648438 C 2.539062 11.570312 2.574219 11.566406 3.296875 11.566406 L 3.976562 11.5625 Z M 3.976562 17.078125 "/>
<path style=" stroke:none;fill-rule:nonzero;fill:rgb(0%,0%,0%);fill-opacity:1;" d="M 6.175781 14.949219 C 6.070312 14.976562 5.972656 15.0625 5.933594 15.164062 C 5.875 15.304688 5.875 15.820312 5.9375 15.9375 C 6.070312 16.203125 6.441406 16.21875 6.625 15.972656 C 6.675781 15.902344 6.683594 15.839844 6.683594 15.53125 C 6.683594 15.195312 6.679688 15.171875 6.609375 15.09375 C 6.484375 14.957031 6.332031 14.910156 6.175781 14.949219 Z M 6.175781 14.949219 "/>
<path style=" stroke:none;fill-rule:nonzero;fill:rgb(0%,0%,0%);fill-opacity:1;" d="M 6.078125 17.097656 C 5.882812 17.21875 5.886719 17.121094 5.898438 19.460938 C 5.90625 21.566406 5.90625 21.578125 5.972656 21.703125 C 6.101562 21.957031 6.34375 22.136719 6.601562 22.167969 C 6.792969 22.1875 7.914062 22.058594 8.019531 22.003906 C 8.214844 21.902344 8.292969 21.570312 8.160156 21.398438 C 8.042969 21.246094 7.945312 21.21875 7.609375 21.238281 C 7.445312 21.253906 7.179688 21.28125 7.019531 21.300781 C 6.859375 21.324219 6.722656 21.332031 6.714844 21.324219 C 6.703125 21.316406 6.699219 20.414062 6.699219 19.320312 C 6.699219 17.375 6.695312 17.324219 6.640625 17.226562 C 6.53125 17.046875 6.261719 16.980469 6.078125 17.097656 Z M 6.078125 17.097656 "/>
</g>
</svg>
